<svg xmlns="http://www.w3.org/2000/svg" overflow="hidden"><defs><symbol id="icon-circle" viewBox="0 0 32 32">
<path fill="#fad34f" style="fill: var(--color1, #fad34f)" opacity="0.1" d="M32 16c0 8.837-7.163 16-16 16s-16-7.163-16-16c0-8.837 7.163-16 16-16s16 7.163 16 16z"></path>
</symbol><symbol id="icon-yellow-down" viewBox="0 0 32 32">
<path fill="#fad34f" style="fill: var(--color1, #fad34f)" d="M16.052 31.983c8.837 0 16-7.163 16-16s-7.163-16-16-16c-8.837 0-16 7.163-16 16s7.163 16 16 16z"></path>
<path fill="#fff" style="fill: var(--color2, #fff)" d="M20.363 20.954c0 1.146-0.929 0-2.076 0-1.146 0-2.076 1.146-2.076 0s0.929-2.076 2.076-2.076c1.147 0 2.076 0.929 2.076 2.076z"></path>
<path fill="#fff" style="fill: var(--color2, #fff)" d="M26.898 20.954c0 1.146-0.929 0-2.076 0-1.146 0-2.076 1.146-2.076 0s0.929-2.076 2.076-2.076c1.147 0 2.076 0.929 2.076 2.076z"></path>
<path fill="#fff" style="fill: var(--color2, #fff)" d="M24.818 25.352c0 2.108-1.709 3.815-3.815 3.815s-3.815-1.709-3.815-3.815c0-2.107 1.709 0.147 3.815 0.147s3.815-2.254 3.815-0.147z"></path>
</symbol><symbol id="icon-yellow-up" viewBox="0 0 32 32">
<path fill="#fad34f" style="fill: var(--color1, #fad34f)" d="M25.015 28.792c7.288-5.14 9.146-15.049 4.151-22.132s-14.953-8.659-22.241-3.52-9.146 15.049-4.151 22.132c4.996 7.084 14.953 8.659 22.241 3.52z"></path>
<path fill="#fff" style="fill: var(--color2, #fff)" d="M14.599 8.792c0.338 0.479-0.194 0.523-0.686 0.871s-0.76 0.867-1.098 0.388c-0.338-0.48-0.212-1.149 0.281-1.496s1.165-0.242 1.504 0.238z"></path>
<path fill="#fff" style="fill: var(--color2, #fff)" d="M18.008 6.388c0.338 0.479-0.194 0.523-0.686 0.871s-0.76 0.867-1.098 0.388c-0.338-0.48-0.212-1.149 0.281-1.496s1.165-0.242 1.503 0.238z"></path>
<path fill="#fff" style="fill: var(--color2, #fff)" d="M18.73 9.211c0.66 0.935 0.414 2.244-0.548 2.923s-2.278 0.471-2.937-0.465c-0.66-0.935 0.826-0.485 1.789-1.164s1.037-2.229 1.697-1.294z"></path>
</symbol><symbol id="icon-pink" viewBox="0 0 32 32">
<path fill="#f472b7" style="fill: var(--color3, #f472b7)" d="M26.584 27.652c-6.613 6.030-16.725 5.709-22.586-0.718s-5.252-16.526 1.36-22.557 16.725-5.709 22.586 0.718c5.861 6.427 5.252 16.526-1.36 22.557z"></path>
<path fill="#fff" style="fill: var(--color2, #fff)" d="M9.237 13.12c0.396 0.434 0.554-0.077 1.002-0.484s1.014-0.557 0.617-0.992-1.080-0.456-1.527-0.049c-0.448 0.407-0.489 1.090-0.092 1.525z"></path>
<path fill="#fff" style="fill: var(--color2, #fff)" d="M6.144 15.941c0.396 0.434 0.555-0.076 1.002-0.484s1.014-0.557 0.617-0.992c-0.397-0.435-1.080-0.456-1.527-0.049s-0.489 1.090-0.092 1.525z"></path>
<path fill="#fff" style="fill: var(--color2, #fff)" d="M8.754 17.259c0.774 0.849 2.11 0.891 2.983 0.095s0.954-2.13 0.18-2.979c-0.774-0.849-0.654 0.705-1.527 1.501s-2.409 0.534-1.635 1.383z"></path>
</symbol><symbol id="icon-green" viewBox="0 0 32 32">
<path fill="#46ebb0" style="fill: var(--color1, #46ebb0)" d="M28.943 19.057c0 7.148-5.795 12.943-12.943 12.943s-12.943-5.795-12.943-12.943v-19.057h25.885v19.057z"></path>
<path fill="#fff" style="fill: var(--color2, #fff)" d="M15.597 22.779c0-0.927 0.752 0 1.679 0s1.679-0.927 1.679 0-0.752 1.679-1.679 1.679c-0.928 0-1.679-0.752-1.679-1.679z"></path>
<path fill="#fff" style="fill: var(--color2, #fff)" d="M10.311 22.779c0-0.927 0.752 0 1.679 0s1.679-0.927 1.679 0-0.752 1.679-1.679 1.679c-0.928 0-1.679-0.752-1.679-1.679z"></path>
<path fill="#fff" style="fill: var(--color2, #fff)" d="M11.993 19.222c0-1.705 1.382-3.086 3.086-3.086s3.086 1.382 3.086 3.086c0 1.704-1.382-0.119-3.086-0.119s-3.086 1.823-3.086 0.119z"></path>
</symbol><symbol id="icon-facebook" viewBox="0 0 32 32">
<path d="M19 6h5v-6h-5c-3.86 0-7 3.14-7 7v3h-4v6h4v16h6v-16h5l1-6h-6v-3c0-0.542 0.458-1 1-1z"></path>
</symbol><symbol id="icon-twitter" viewBox="0 0 32 32">
<path d="M32 7.075c-1.175 0.525-2.444 0.875-3.769 1.031 1.356-0.813 2.394-2.1 2.887-3.631-1.269 0.75-2.675 1.3-4.169 1.594-1.2-1.275-2.906-2.069-4.794-2.069-3.625 0-6.563 2.938-6.563 6.563 0 0.512 0.056 1.012 0.169 1.494-5.456-0.275-10.294-2.888-13.531-6.862-0.563 0.969-0.887 2.1-0.887 3.3 0 2.275 1.156 4.287 2.919 5.463-1.075-0.031-2.087-0.331-2.975-0.819 0 0.025 0 0.056 0 0.081 0 3.181 2.263 5.838 5.269 6.437-0.55 0.15-1.131 0.231-1.731 0.231-0.425 0-0.831-0.044-1.237-0.119 0.838 2.606 3.263 4.506 6.131 4.563-2.25 1.762-5.075 2.813-8.156 2.813-0.531 0-1.050-0.031-1.569-0.094 2.913 1.869 6.362 2.95 10.069 2.95 12.075 0 18.681-10.006 18.681-18.681 0-0.287-0.006-0.569-0.019-0.85 1.281-0.919 2.394-2.075 3.275-3.394z"></path>
</symbol><symbol id="icon-linkedin" viewBox="0 0 32 32">
<path d="M12 12h5.535v2.837h0.079c0.77-1.381 2.655-2.837 5.464-2.837 5.842 0 6.922 3.637 6.922 8.367v9.633h-5.769v-8.54c0-2.037-0.042-4.657-3.001-4.657-3.005 0-3.463 2.218-3.463 4.509v8.688h-5.767v-18z"></path>
<path d="M2 12h6v18h-6v-18z"></path>
<path d="M8 7c0 1.657-1.343 3-3 3s-3-1.343-3-3c0-1.657 1.343-3 3-3s3 1.343 3 3z"></path>
</symbol><symbol id="icon-pinterest" viewBox="0 0 26 32">
<path d="M13.813 0.263c-6.947 0-13.813 4.313-13.813 11.294 0 4.439 2.681 6.962 4.306 6.962 0.67 0 1.056-1.74 1.056-2.232 0-0.586-1.605-1.835-1.605-4.276 0-5.070 4.144-8.665 9.506-8.665 4.611 0 8.023 2.44 8.023 6.924 0 3.349-1.442 9.629-6.114 9.629-1.686 0-3.128-1.135-3.128-2.762 0-2.384 1.788-4.692 1.788-7.151 0-4.175-6.358-3.418-6.358 1.627 0 1.059 0.142 2.232 0.65 3.197-0.934 3.746-2.844 9.327-2.844 13.186 0 1.192 0.183 2.365 0.305 3.556 0.23 0.24 0.115 0.214 0.467 0.095 3.413-4.351 3.291-5.203 4.834-10.897 0.833 1.476 2.986 2.27 4.692 2.27 7.191 0 10.42-6.527 10.42-12.41 0-6.262-5.809-10.348-12.188-10.348z"></path>
</symbol></defs></svg>